<svg xmlns="http://www.w3.org/2000/svg" width="56.312" height="56.312" viewBox="46 936.344 56.312 56.312"><g data-name="Back On Top"><path d="M74.156 936.344c15.55 0 28.156 12.606 28.156 28.156 0 15.55-12.606 28.156-28.156 28.156C58.606 992.656 46 980.05 46 964.5c0-15.55 12.606-28.156 28.156-28.156Z" fill="#1f96d3" fill-rule="evenodd" data-name="Path 11"/><path d="m63.185 966.63-1.274-1.275a1.372 1.372 0 0 1 0-1.945l11.15-11.155c.54-.54 1.411-.54 1.945 0l11.15 11.15c.539.539.539 1.41 0 1.945l-1.274 1.273a1.379 1.379 0 0 1-1.969-.023l-6.581-6.908v16.491c0 .764-.614 1.378-1.378 1.378h-1.836a1.374 1.374 0 0 1-1.377-1.378v-16.491l-6.588 6.914a1.369 1.369 0 0 1-1.968.023Z" fill="#fff" fill-rule="evenodd" data-name="Icon awesome-arrow-up"/></g></svg>