<svg xmlns="http://www.w3.org/2000/svg" width="140" height="140.036" viewBox="2 60.876 35 35.009"><path d="M34.11 78.376A4.504 4.504 0 0 1 37 74.174a17.852 17.852 0 0 0-2.16-5.205 4.564 4.564 0 0 1-1.832.392 4.508 4.508 0 0 1-3.181-1.312 4.507 4.507 0 0 1-.93-5.013 17.798 17.798 0 0 0-5.195-2.16 4.508 4.508 0 0 1-4.202 2.89 4.508 4.508 0 0 1-4.202-2.89 17.852 17.852 0 0 0-5.204 2.16 4.494 4.494 0 0 1-4.11 6.325 4.416 4.416 0 0 1-1.833-.392A18.247 18.247 0 0 0 2 74.183a4.499 4.499 0 0 1 2.89 4.202 4.509 4.509 0 0 1-2.88 4.202 17.852 17.852 0 0 0 2.16 5.204 4.508 4.508 0 0 1 5.004.93 4.508 4.508 0 0 1 .929 5.004 17.956 17.956 0 0 0 5.204 2.16 4.487 4.487 0 0 1 4.193-2.88 4.487 4.487 0 0 1 4.193 2.88 17.852 17.852 0 0 0 5.204-2.16 4.511 4.511 0 0 1 .93-5.004 4.477 4.477 0 0 1 3.18-1.313c.62 0 1.25.128 1.824.383a17.957 17.957 0 0 0 2.16-5.204 4.525 4.525 0 0 1-2.88-4.211Zm-14.528 7.282a7.29 7.29 0 0 1-7.292-7.291 7.29 7.29 0 0 1 7.292-7.292 7.29 7.29 0 0 1 7.292 7.292 7.29 7.29 0 0 1-7.292 7.291Z" fill="#fff" fill-rule="evenodd" data-name="Icon ionic-ios-settings"/></svg>