<svg xmlns="http://www.w3.org/2000/svg" width="25.053" height="25.71" viewBox="1719.507 974.506 25.053 25.71"><path d="m1721.185 989.285-1.274-1.274a1.372 1.372 0 0 1 0-1.945l11.15-11.155c.54-.54 1.411-.54 1.945 0l11.15 11.149c.539.54.539 1.412 0 1.945l-1.274 1.274a1.379 1.379 0 0 1-1.969-.023l-6.581-6.909v16.492c0 .763-.614 1.377-1.378 1.377h-1.836a1.374 1.374 0 0 1-1.377-1.377v-16.492l-6.588 6.915a1.369 1.369 0 0 1-1.968.023Z" fill="#fff" fill-rule="evenodd" data-name="Icon awesome-arrow-up"/></svg>