<svg xmlns="http://www.w3.org/2000/svg" width="37.332" height="25.2" viewBox="16.668 23.8 37.332 25.2"><path d="M16.668 46.768V26.032c0-.024.036-.252.108-.684l12.204 10.44-12.168 11.7c-.096-.336-.144-.576-.144-.72Zm1.62-22.86c.168-.072.372-.108.612-.108h32.868c.216 0 .432.036.648.108l-12.24 10.476-1.62 1.296-3.204 2.628-3.204-2.628-1.62-1.296-12.24-10.476Zm.036 24.984L30.6 37.12l4.752 3.852 4.752-3.852L52.38 48.892a1.729 1.729 0 0 1-.612.108H18.9a1.63 1.63 0 0 1-.576-.108Zm23.4-13.104 12.168-10.44c.072.216.108.444.108.684v20.736c0 .216-.036.456-.108.72l-12.168-11.7Z" fill="#fff" fill-rule="evenodd" data-name="Icon zocial-email"/></svg>