<svg xmlns="http://www.w3.org/2000/svg" width="152" height="122.233" viewBox="0 119.194 38 30.558"><g data-name="Icon ionic-ios-people"><path d="M27.705 142.704c-1.046-.418-2.756-.44-3.512-.764-.523-.23-1.355-.482-1.626-.848-.27-.367-.27-2.985-.27-2.985s.653-.691.924-1.466c.271-.764.449-2.88.449-2.88s.616.293.859-1.089c.205-1.194.598-1.822.495-2.702-.112-.88-.542-.67-.542-.67s.542-.89.542-3.917c0-3.12-2.102-6.189-6.035-6.189-3.923 0-6.044 3.079-6.044 6.19 0 3.026.533 3.916.533 3.916s-.44-.21-.542.67c-.112.88.28 1.508.495 2.702.243 1.393.86 1.09.86 1.09s.177 2.104.448 2.879c.27.775.925 1.466.925 1.466s0 2.618-.271 2.985c-.271.366-1.102.618-1.626.838-.747.324-2.456.366-3.512.785-1.046.419-4.278 2.325-4.278 7.037h25.997c.01-4.723-3.223-6.629-4.269-7.048Z" fill="#fff" fill-rule="evenodd" data-name="Path 8"/><path d="M7.629 138.166s1.68-.098 2.348-1.14c-1.09-2.88-.499-6.237-.724-9.373-.225-3.125-1.244-5-3.283-5H5.94c-1.968 0-3.03 1.863-3.255 5-.225 3.124.4 6.861-.717 9.373.668 1.054 2.355 1.017 2.355 1.017s.07 1.764-.07 2.058c-.14.295-.556.576-.844.674-.619.233-1.273.552-1.82.883-.55.33-1.59 2.107-1.59 4.558h5.646c.155-.98 1.217-2.733 2.25-3.652.633-.563 1.259-.527 1.737-.637 0 0 .267-.735-.612-1.017 0 0-1.21-.527-1.35-.82-.133-.27-.042-1.924-.042-1.924Z" fill="#fff" fill-rule="evenodd" data-name="Path 9"/><path d="M30.371 138.166s-1.68-.098-2.348-1.14c1.09-2.88.499-6.237.724-9.373.225-3.125 1.244-5 3.283-5h.029c1.968 0 3.03 1.863 3.255 5 .225 3.124-.4 6.861.717 9.373-.668 1.054-2.355 1.017-2.355 1.017s-.07 1.764.07 2.058c.14.295.556.576.844.674.619.233 1.272.552 1.82.883.55.33 1.59 2.107 1.59 4.558h-5.646c-.155-.98-1.216-2.733-2.25-3.652-.633-.563-1.259-.527-1.737-.637 0 0-.267-.735.612-1.017 0 0 1.21-.527 1.35-.82.133-.27.042-1.924.042-1.924Z" fill="#fff" fill-rule="evenodd" data-name="Path 10"/></g></svg>